<svg width="428" height="926" viewBox="0 0 428 926" fill="none" xmlns="http://www.w3.org/2000/svg">
    <defs>
        <linearGradient id="paint0_linear_987_7009" x1="-5.79793e-06" y1="142.5" x2="327.5" y2="844"
                        gradientUnits="userSpaceOnUse">
            <stop stop-color="#E2DBFF"/>
            <stop offset="1" stop-color="#3C0DF9"/>
        </linearGradient>
        <linearGradient id="paint1_linear_987_7009" x1="454" y1="1528" x2="202.5" y2="293.5"
                        gradientUnits="userSpaceOnUse">
            <stop stop-color="#B5DBFF"/>
            <stop offset="1" stop-color="#E6E6E6" stop-opacity="0"/>
        </linearGradient>
        <linearGradient id="paint2_linear_987_7009" x1="454" y1="1528" x2="202.5" y2="293.5"
                        gradientUnits="userSpaceOnUse">
            <stop stop-color="#B5DBFF"/>
            <stop offset="1" stop-color="#E6E6E6" stop-opacity="0"/>
        </linearGradient>
        <linearGradient id="paint3_linear_987_7009" x1="454" y1="1528" x2="202.5" y2="293.5"
                        gradientUnits="userSpaceOnUse">
            <stop stop-color="#B5DBFF"/>
            <stop offset="1" stop-color="#E6E6E6" stop-opacity="0"/>
        </linearGradient>
        <linearGradient id="paint4_linear_987_7009" x1="454" y1="1528" x2="202.5" y2="293.5"
                        gradientUnits="userSpaceOnUse">
            <stop stop-color="#B5DBFF"/>
            <stop offset="1" stop-color="#E6E6E6" stop-opacity="0"/>
        </linearGradient>
        <linearGradient id="paint5_linear_987_7009" x1="454" y1="1528" x2="202.5" y2="293.5"
                        gradientUnits="userSpaceOnUse">
            <stop stop-color="#B5DBFF"/>
            <stop offset="1" stop-color="#E6E6E6" stop-opacity="0"/>
        </linearGradient>
        <linearGradient id="paint6_linear_987_7009" x1="454" y1="1528" x2="202.5" y2="293.5"
                        gradientUnits="userSpaceOnUse">
            <stop stop-color="#B5DBFF"/>
            <stop offset="1" stop-color="#E6E6E6" stop-opacity="0"/>
        </linearGradient>
        <linearGradient id="paint7_linear_987_7009" x1="454" y1="1528" x2="202.5" y2="293.5"
                        gradientUnits="userSpaceOnUse">
            <stop stop-color="#B5DBFF"/>
            <stop offset="1" stop-color="#E6E6E6" stop-opacity="0"/>
        </linearGradient>
        <linearGradient id="paint8_linear_987_7009" x1="454" y1="1528" x2="202.5" y2="293.5"
                        gradientUnits="userSpaceOnUse">
            <stop stop-color="#B5DBFF"/>
            <stop offset="1" stop-color="#E6E6E6" stop-opacity="0"/>
        </linearGradient>
        <linearGradient id="paint9_linear_987_7009" x1="454" y1="1528" x2="202.5" y2="293.5"
                        gradientUnits="userSpaceOnUse">
            <stop stop-color="#B5DBFF"/>
            <stop offset="1" stop-color="#E6E6E6" stop-opacity="0"/>
        </linearGradient>
        <linearGradient id="paint10_linear_987_7009" x1="454" y1="1528" x2="202.5" y2="293.5"
                        gradientUnits="userSpaceOnUse">
            <stop stop-color="#B5DBFF"/>
            <stop offset="1" stop-color="#E6E6E6" stop-opacity="0"/>
        </linearGradient>
        <linearGradient id="paint11_linear_987_7009" x1="454" y1="1528" x2="202.5" y2="293.5"
                        gradientUnits="userSpaceOnUse">
            <stop stop-color="#B5DBFF"/>
            <stop offset="1" stop-color="#E6E6E6" stop-opacity="0"/>
        </linearGradient>
        <linearGradient id="paint12_linear_987_7009" x1="454" y1="1528" x2="202.5" y2="293.5"
                        gradientUnits="userSpaceOnUse">
            <stop stop-color="#B5DBFF"/>
            <stop offset="1" stop-color="#E6E6E6" stop-opacity="0"/>
        </linearGradient>
        <linearGradient id="paint13_linear_987_7009" x1="454" y1="1528" x2="202.5" y2="293.5"
                        gradientUnits="userSpaceOnUse">
            <stop stop-color="#B5DBFF"/>
            <stop offset="1" stop-color="#E6E6E6" stop-opacity="0"/>
        </linearGradient>
        <linearGradient id="paint14_linear_987_7009" x1="454" y1="1528" x2="202.5" y2="293.5"
                        gradientUnits="userSpaceOnUse">
            <stop stop-color="#B5DBFF"/>
            <stop offset="1" stop-color="#E6E6E6" stop-opacity="0"/>
        </linearGradient>
        <linearGradient id="paint15_linear_987_7009" x1="454" y1="1528" x2="202.5" y2="293.5"
                        gradientUnits="userSpaceOnUse">
            <stop stop-color="#B5DBFF"/>
            <stop offset="1" stop-color="#E6E6E6" stop-opacity="0"/>
        </linearGradient>
        <linearGradient id="paint16_linear_987_7009" x1="454" y1="1528" x2="202.5" y2="293.5"
                        gradientUnits="userSpaceOnUse">
            <stop stop-color="#B5DBFF"/>
            <stop offset="1" stop-color="#E6E6E6" stop-opacity="0"/>
        </linearGradient>
        <linearGradient id="paint17_linear_987_7009" x1="454" y1="1528" x2="202.5" y2="293.5"
                        gradientUnits="userSpaceOnUse">
            <stop stop-color="#B5DBFF"/>
            <stop offset="1" stop-color="#E6E6E6" stop-opacity="0"/>
        </linearGradient>
        <linearGradient id="paint18_linear_987_7009" x1="454" y1="1528" x2="202.5" y2="293.5"
                        gradientUnits="userSpaceOnUse">
            <stop stop-color="#B5DBFF"/>
            <stop offset="1" stop-color="#E6E6E6" stop-opacity="0"/>
        </linearGradient>
        <linearGradient id="paint19_linear_987_7009" x1="454" y1="1528" x2="202.5" y2="293.5"
                        gradientUnits="userSpaceOnUse">
            <stop stop-color="#B5DBFF"/>
            <stop offset="1" stop-color="#E6E6E6" stop-opacity="0"/>
        </linearGradient>
        <linearGradient id="paint20_linear_987_7009" x1="454" y1="1528" x2="202.5" y2="293.5"
                        gradientUnits="userSpaceOnUse">
            <stop stop-color="#B5DBFF"/>
            <stop offset="1" stop-color="#E6E6E6" stop-opacity="0"/>
        </linearGradient>
        <linearGradient id="paint21_linear_987_7009" x1="454" y1="1528" x2="202.5" y2="293.5"
                        gradientUnits="userSpaceOnUse">
            <stop stop-color="#B5DBFF"/>
            <stop offset="1" stop-color="#E6E6E6" stop-opacity="0"/>
        </linearGradient>
        <linearGradient id="paint22_linear_987_7009" x1="454" y1="1528" x2="202.5" y2="293.5"
                        gradientUnits="userSpaceOnUse">
            <stop stop-color="#B5DBFF"/>
            <stop offset="1" stop-color="#E6E6E6" stop-opacity="0"/>
        </linearGradient>
        <linearGradient id="paint23_linear_987_7009" x1="454" y1="1528" x2="202.5" y2="293.5"
                        gradientUnits="userSpaceOnUse">
            <stop stop-color="#B5DBFF"/>
            <stop offset="1" stop-color="#E6E6E6" stop-opacity="0"/>
        </linearGradient>
        <linearGradient id="paint24_linear_987_7009" x1="454" y1="1528" x2="202.5" y2="293.5"
                        gradientUnits="userSpaceOnUse">
            <stop stop-color="#B5DBFF"/>
            <stop offset="1" stop-color="#E6E6E6" stop-opacity="0"/>
        </linearGradient>
        <linearGradient id="paint25_linear_987_7009" x1="454" y1="1528" x2="202.5" y2="293.5"
                        gradientUnits="userSpaceOnUse">
            <stop stop-color="#B5DBFF"/>
            <stop offset="1" stop-color="#E6E6E6" stop-opacity="0"/>
        </linearGradient>
        <linearGradient id="paint26_linear_987_7009" x1="454" y1="1528" x2="202.5" y2="293.5"
                        gradientUnits="userSpaceOnUse">
            <stop stop-color="#B5DBFF"/>
            <stop offset="1" stop-color="#E6E6E6" stop-opacity="0"/>
        </linearGradient>
        <linearGradient id="paint27_linear_987_7009" x1="454" y1="1528" x2="202.5" y2="293.5"
                        gradientUnits="userSpaceOnUse">
            <stop stop-color="#B5DBFF"/>
            <stop offset="1" stop-color="#E6E6E6" stop-opacity="0"/>
        </linearGradient>
        <linearGradient id="paint28_linear_987_7009" x1="454" y1="1528" x2="202.5" y2="293.5"
                        gradientUnits="userSpaceOnUse">
            <stop stop-color="#B5DBFF"/>
            <stop offset="1" stop-color="#E6E6E6" stop-opacity="0"/>
        </linearGradient>
        <linearGradient id="paint29_linear_987_7009" x1="454" y1="1528" x2="202.5" y2="293.5"
                        gradientUnits="userSpaceOnUse">
            <stop stop-color="#B5DBFF"/>
            <stop offset="1" stop-color="#E6E6E6" stop-opacity="0"/>
        </linearGradient>
        <clipPath id="clip0_987_7009">
            <rect width="428" height="926" fill="white"/>
        </clipPath>
    </defs>
    <g clip-path="url(#clip0_987_7009)">
        <rect width="428" height="926" fill="url(#paint0_linear_987_7009)"/>
        <rect opacity="0.14" x="-160" y="-156" width="745" height="745" rx="372.5" fill="white"/>
        <g opacity="0.4">
            <path d="M1142.12 276H1141.11V301.193H1103.69V276H1102.67V301.193H1065.25V276H1064.24V301.193H1026.81V276H1025.8V301.193H988.374V276H987.361V301.193H949.936V276H948.923V301.193H911.499V276H910.486V301.193H873.061V276H872.048V301.193H834.623V276H833.61V301.193H796.186V276H795.173V301.193H757.748V276H756.735V301.193H719.31V276H718.297V301.193H680.873V276H679.86V301.193H642.435V276H641.422V301.193H603.997V276H602.984V301.193H565.56V276H564.547V301.193H527.122V276H526.109V301.193H488.684V276H487.671V301.193H450.247V276H449.234V301.193H411.809V276H410.796V301.193H373.371V276H372.358V301.193H334.934V276H333.921V301.193H296.496V276H295.483V301.193H258.058V276H257.045V301.193H219.621V276H218.608V301.193H181.183V276H180.17V301.193H142.745V276H141.732V301.193H104.307V276H103.295V301.193H65.8698V276H64.8569V301.193H27.4321V276H26.4192V301.193H-11.0056V276H-12.0184V301.193H-49.4432V276H-50.4562V301.193H-87.881V276H-88.8938V301.193H-126.319V276H-127.332V301.193H-131.772V302.206H-127.332V336.022H-131.772V337.035H-127.332V370.851H-131.772V371.863H-127.332V405.679H-131.772V406.692H-127.332V440.508H-131.772V441.521H-127.332V475.337H-131.772V476.35H-127.332V510.166H-131.772V511.178H-127.332V544.994H-131.772V546.007H-127.332V579.823H-131.772V580.836H-127.332V614.652H-131.772V615.665H-127.332V649.481H-131.772V650.493H-127.332V684.309H-131.772V685.322H-127.332V719.138H-131.772V720.151H-127.332V753.967H-131.772V754.98H-127.332V788.796H-131.772V789.808H-127.332V823.624H-131.772V824.637H-127.332V858.453H-131.772V859.466H-127.332V893.282H-131.772V894.295H-127.332V928.111H-131.772V929.123H-127.332V962.939H-131.772V963.952H-127.332V997.768H-131.772V998.781H-127.332V1024H-126.319V998.807H-88.8938V1024H-87.881V998.807H-50.4562V1024H-49.4432V998.807H-12.0184V1024H-11.0056V998.807H26.4192V1024H27.4321V998.807H64.8569V1024H65.8698V998.807H103.295V1024H104.307V998.807H141.732V1024H142.745V998.807H180.17V1024H181.183V998.807H218.608V1024H219.621V998.807H257.045V1024H258.058V998.807H295.483V1024H296.496V998.807H333.921V1024H334.934V998.807H372.358V1024H373.371V998.807H410.796V1024H411.809V998.807H449.234V1024H450.247V998.807H487.671V1024H488.684V998.807H526.109V1024H527.122V998.807H564.547V1024H565.56V998.807H602.984V1024H603.997V998.807H641.422V1024H642.435V998.807H679.86V1024H680.873V998.807H718.297V1024H719.31V998.807H756.735V1024H757.748V998.807H795.173V1024H796.186V998.807H833.61V1024H834.623V998.807H872.048V1024H873.061V998.807H910.486V1024H911.499V998.807H948.923V1024H949.936V998.807H987.361V1024H988.374V998.807H1025.8V1024H1026.81V998.807H1064.24V1024H1065.25V998.807H1102.67V1024H1103.69V998.807H1141.11V1024H1142.12V998.807H1177.21V997.794H1142.12V963.978H1177.21V962.965H1142.12V929.149H1177.21V928.137H1142.12V894.321H1177.21V893.308H1142.12V859.492H1177.21V858.479H1142.12V824.663H1177.21V823.65H1142.12V789.834H1177.21V788.822H1142.12V755.006H1177.21V753.993H1142.12V720.177H1177.21V719.164H1142.12V685.348H1177.21V684.335H1142.12V650.519H1177.21V649.507H1142.12V615.691H1177.21V614.678H1142.12V580.862H1177.21V579.849H1142.12V546.033H1177.21V545.02H1142.12V511.204H1177.21V510.192H1142.12V476.376H1177.21V475.363H1142.12V441.547H1177.21V440.534H1142.12V406.718H1177.21V405.705H1142.12V371.889H1177.21V370.877H1142.12V337.061H1177.21V336.048H1142.12V302.232H1177.21V301.219H1142.12V276ZM-88.8678 997.768H-126.293V963.952H-88.8678V997.768ZM-88.8678 962.939H-126.293V929.123H-88.8678V962.939ZM-88.8678 928.111H-126.293V894.295H-88.8678V928.111ZM-88.8678 893.282H-126.293V859.466H-88.8678V893.282ZM-88.8678 858.453H-126.293V824.637H-88.8678V858.453ZM-88.8678 823.624H-126.293V789.808H-88.8678V823.624ZM-88.8678 788.796H-126.293V754.98H-88.8678V788.796ZM-88.8678 753.967H-126.293V720.151H-88.8678V753.967ZM-88.8678 719.138H-126.293V685.322H-88.8678V719.138ZM-88.8678 684.309H-126.293V650.493H-88.8678V684.309ZM-88.8678 649.481H-126.293V615.665H-88.8678V649.481ZM-88.8678 614.652H-126.293V580.836H-88.8678V614.652ZM-88.8678 579.823H-126.293V546.007H-88.8678V579.823ZM-88.8678 544.994H-126.293V511.178H-88.8678V544.994ZM-88.8678 510.166H-126.293V476.35H-88.8678V510.166ZM-88.8678 475.337H-126.293V441.521H-88.8678V475.337ZM-88.8678 440.508H-126.293V406.692H-88.8678V440.508ZM-88.8678 405.679H-126.293V371.863H-88.8678V405.679ZM-88.8678 370.851H-126.293V337.035H-88.8678V370.851ZM-88.8678 336.022H-126.293V302.206H-88.8678V336.022ZM-50.4302 997.768H-87.855V963.952H-50.4302V997.768ZM-50.4302 962.939H-87.855V929.123H-50.4302V962.939ZM-50.4302 928.111H-87.855V894.295H-50.4302V928.111ZM-50.4302 893.282H-87.855V859.466H-50.4302V893.282ZM-50.4302 858.453H-87.855V824.637H-50.4302V858.453ZM-50.4302 823.624H-87.855V789.808H-50.4302V823.624ZM-50.4302 788.796H-87.855V754.98H-50.4302V788.796ZM-50.4302 753.967H-87.855V720.151H-50.4302V753.967ZM-50.4302 719.138H-87.855V685.322H-50.4302V719.138ZM-50.4302 684.309H-87.855V650.493H-50.4302V684.309ZM-50.4302 649.481H-87.855V615.665H-50.4302V649.481ZM-50.4302 614.652H-87.855V580.836H-50.4302V614.652ZM-50.4302 579.823H-87.855V546.007H-50.4302V579.823ZM-50.4302 544.994H-87.855V511.178H-50.4302V544.994ZM-50.4302 510.166H-87.855V476.35H-50.4302V510.166ZM-50.4302 475.337H-87.855V441.521H-50.4302V475.337ZM-50.4302 440.508H-87.855V406.692H-50.4302V440.508ZM-50.4302 405.679H-87.855V371.863H-50.4302V405.679ZM-50.4302 370.851H-87.855V337.035H-50.4302V370.851ZM-50.4302 336.022H-87.855V302.206H-50.4302V336.022ZM-11.9924 997.768H-49.4172V963.952H-11.9924V997.768ZM-11.9924 962.939H-49.4172V929.123H-11.9924V962.939ZM-11.9924 928.111H-49.4172V894.295H-11.9924V928.111ZM-11.9924 893.282H-49.4172V859.466H-11.9924V893.282ZM-11.9924 858.453H-49.4172V824.637H-11.9924V858.453ZM-11.9924 823.624H-49.4172V789.808H-11.9924V823.624ZM-11.9924 788.796H-49.4172V754.98H-11.9924V788.796ZM-11.9924 753.967H-49.4172V720.151H-11.9924V753.967ZM-11.9924 719.138H-49.4172V685.322H-11.9924V719.138ZM-11.9924 684.309H-49.4172V650.493H-11.9924V684.309ZM-11.9924 649.481H-49.4172V615.665H-11.9924V649.481ZM-11.9924 614.652H-49.4172V580.836H-11.9924V614.652ZM-11.9924 579.823H-49.4172V546.007H-11.9924V579.823ZM-11.9924 544.994H-49.4172V511.178H-11.9924V544.994ZM-11.9924 510.166H-49.4172V476.35H-11.9924V510.166ZM-11.9924 475.337H-49.4172V441.521H-11.9924V475.337ZM-11.9924 440.508H-49.4172V406.692H-11.9924V440.508ZM-11.9924 405.679H-49.4172V371.863H-11.9924V405.679ZM-11.9924 370.851H-49.4172V337.035H-11.9924V370.851ZM-11.9924 336.022H-49.4172V302.206H-11.9924V336.022ZM26.4452 997.768H-10.9796V963.952H26.4452V997.768ZM26.4452 962.939H-10.9796V929.123H26.4452V962.939ZM26.4452 928.111H-10.9796V894.295H26.4452V928.111ZM26.4452 893.282H-10.9796V859.466H26.4452V893.282ZM26.4452 858.453H-10.9796V824.637H26.4452V858.453ZM26.4452 823.624H-10.9796V789.808H26.4452V823.624ZM26.4452 788.796H-10.9796V754.98H26.4452V788.796ZM26.4452 753.967H-10.9796V720.151H26.4452V753.967ZM26.4452 719.138H-10.9796V685.322H26.4452V719.138ZM26.4452 684.309H-10.9796V650.493H26.4452V684.309ZM26.4452 649.481H-10.9796V615.665H26.4452V649.481ZM26.4452 614.652H-10.9796V580.836H26.4452V614.652ZM26.4452 579.823H-10.9796V546.007H26.4452V579.823ZM26.4452 544.994H-10.9796V511.178H26.4452V544.994ZM26.4452 510.166H-10.9796V476.35H26.4452V510.166ZM26.4452 475.337H-10.9796V441.521H26.4452V475.337ZM26.4452 440.508H-10.9796V406.692H26.4452V440.508ZM26.4452 405.679H-10.9796V371.863H26.4452V405.679ZM26.4452 370.851H-10.9796V337.035H26.4452V370.851ZM26.4452 336.022H-10.9796V302.206H26.4452V336.022ZM64.8828 997.768H27.4581V963.952H64.8828V997.768ZM64.8828 962.939H27.4581V929.123H64.8828V962.939ZM64.8828 928.111H27.4581V894.295H64.8828V928.111ZM64.8828 893.282H27.4581V859.466H64.8828V893.282ZM64.8828 858.453H27.4581V824.637H64.8828V858.453ZM64.8828 823.624H27.4581V789.808H64.8828V823.624ZM64.8828 788.796H27.4581V754.98H64.8828V788.796ZM64.8828 753.967H27.4581V720.151H64.8828V753.967ZM64.8828 719.138H27.4581V685.322H64.8828V719.138ZM64.8828 684.309H27.4581V650.493H64.8828V684.309ZM64.8828 649.481H27.4581V615.665H64.8828V649.481ZM64.8828 614.652H27.4581V580.836H64.8828V614.652ZM64.8828 579.823H27.4581V546.007H64.8828V579.823ZM64.8828 544.994H27.4581V511.178H64.8828V544.994ZM64.8828 510.166H27.4581V476.35H64.8828V510.166ZM64.8828 475.337H27.4581V441.521H64.8828V475.337ZM64.8828 440.508H27.4581V406.692H64.8828V440.508ZM64.8828 405.679H27.4581V371.863H64.8828V405.679ZM64.8828 370.851H27.4581V337.035H64.8828V370.851ZM64.8828 336.022H27.4581V302.206H64.8828V336.022ZM103.321 997.768H65.8958V963.952H103.321V997.768ZM103.321 962.939H65.8958V929.123H103.321V962.939ZM103.321 928.111H65.8958V894.295H103.321V928.111ZM103.321 893.282H65.8958V859.466H103.321V893.282ZM103.321 858.453H65.8958V824.637H103.321V858.453ZM103.321 823.624H65.8958V789.808H103.321V823.624ZM103.321 788.796H65.8958V754.98H103.321V788.796ZM103.321 753.967H65.8958V720.151H103.321V753.967ZM103.321 719.138H65.8958V685.322H103.321V719.138ZM103.321 684.309H65.8958V650.493H103.321V684.309ZM103.321 649.481H65.8958V615.665H103.321V649.481ZM103.321 614.652H65.8958V580.836H103.321V614.652ZM103.321 579.823H65.8958V546.007H103.321V579.823ZM103.321 544.994H65.8958V511.178H103.321V544.994ZM103.321 510.166H65.8958V476.35H103.321V510.166ZM103.321 475.337H65.8958V441.521H103.321V475.337ZM103.321 440.508H65.8958V406.692H103.321V440.508ZM103.321 405.679H65.8958V371.863H103.321V405.679ZM103.321 370.851H65.8958V337.035H103.321V370.851ZM103.321 336.022H65.8958V302.206H103.321V336.022ZM141.758 997.768H104.333V963.952H141.758V997.768ZM141.758 962.939H104.333V929.123H141.758V962.939ZM141.758 928.111H104.333V894.295H141.758V928.111ZM141.758 893.282H104.333V859.466H141.758V893.282ZM141.758 858.453H104.333V824.637H141.758V858.453ZM141.758 823.624H104.333V789.808H141.758V823.624ZM141.758 788.796H104.333V754.98H141.758V788.796ZM141.758 753.967H104.333V720.151H141.758V753.967ZM141.758 719.138H104.333V685.322H141.758V719.138ZM141.758 684.309H104.333V650.493H141.758V684.309ZM141.758 649.481H104.333V615.665H141.758V649.481ZM141.758 614.652H104.333V580.836H141.758V614.652ZM141.758 579.823H104.333V546.007H141.758V579.823ZM141.758 544.994H104.333V511.178H141.758V544.994ZM141.758 510.166H104.333V476.35H141.758V510.166ZM141.758 475.337H104.333V441.521H141.758V475.337ZM141.758 440.508H104.333V406.692H141.758V440.508ZM141.758 405.679H104.333V371.863H141.758V405.679ZM141.758 370.851H104.333V337.035H141.758V370.851ZM141.758 336.022H104.333V302.206H141.758V336.022ZM180.196 997.768H142.771V963.952H180.196V997.768ZM180.196 962.939H142.771V929.123H180.196V962.939ZM180.196 928.111H142.771V894.295H180.196V928.111ZM180.196 893.282H142.771V859.466H180.196V893.282ZM180.196 858.453H142.771V824.637H180.196V858.453ZM180.196 823.624H142.771V789.808H180.196V823.624ZM180.196 788.796H142.771V754.98H180.196V788.796ZM180.196 753.967H142.771V720.151H180.196V753.967ZM180.196 719.138H142.771V685.322H180.196V719.138ZM180.196 684.309H142.771V650.493H180.196V684.309ZM180.196 649.481H142.771V615.665H180.196V649.481ZM180.196 614.652H142.771V580.836H180.196V614.652ZM180.196 579.823H142.771V546.007H180.196V579.823ZM180.196 544.994H142.771V511.178H180.196V544.994ZM180.196 510.166H142.771V476.35H180.196V510.166ZM180.196 475.337H142.771V441.521H180.196V475.337ZM180.196 440.508H142.771V406.692H180.196V440.508ZM180.196 405.679H142.771V371.863H180.196V405.679ZM180.196 370.851H142.771V337.035H180.196V370.851ZM180.196 336.022H142.771V302.206H180.196V336.022ZM218.634 997.768H181.209V963.952H218.634V997.768ZM218.634 962.939H181.209V929.123H218.634V962.939ZM218.634 928.111H181.209V894.295H218.634V928.111ZM218.634 893.282H181.209V859.466H218.634V893.282ZM218.634 858.453H181.209V824.637H218.634V858.453ZM218.634 823.624H181.209V789.808H218.634V823.624ZM218.634 788.796H181.209V754.98H218.634V788.796ZM218.634 753.967H181.209V720.151H218.634V753.967ZM218.634 719.138H181.209V685.322H218.634V719.138ZM218.634 684.309H181.209V650.493H218.634V684.309ZM218.634 649.481H181.209V615.665H218.634V649.481ZM218.634 614.652H181.209V580.836H218.634V614.652ZM218.634 579.823H181.209V546.007H218.634V579.823ZM218.634 544.994H181.209V511.178H218.634V544.994ZM218.634 510.166H181.209V476.35H218.634V510.166ZM218.634 475.337H181.209V441.521H218.634V475.337ZM218.634 440.508H181.209V406.692H218.634V440.508ZM218.634 405.679H181.209V371.863H218.634V405.679ZM218.634 370.851H181.209V337.035H218.634V370.851ZM218.634 336.022H181.209V302.206H218.634V336.022ZM257.071 997.768H219.646V963.952H257.071V997.768ZM257.071 962.939H219.646V929.123H257.071V962.939ZM257.071 928.111H219.646V894.295H257.071V928.111ZM257.071 893.282H219.646V859.466H257.071V893.282ZM257.071 858.453H219.646V824.637H257.071V858.453ZM257.071 823.624H219.646V789.808H257.071V823.624ZM257.071 788.796H219.646V754.98H257.071V788.796ZM257.071 753.967H219.646V720.151H257.071V753.967ZM257.071 719.138H219.646V685.322H257.071V719.138ZM257.071 684.309H219.646V650.493H257.071V684.309ZM257.071 649.481H219.646V615.665H257.071V649.481ZM257.071 614.652H219.646V580.836H257.071V614.652ZM257.071 579.823H219.646V546.007H257.071V579.823ZM257.071 544.994H219.646V511.178H257.071V544.994ZM257.071 510.166H219.646V476.35H257.071V510.166ZM257.071 475.337H219.646V441.521H257.071V475.337ZM257.071 440.508H219.646V406.692H257.071V440.508ZM257.071 405.679H219.646V371.863H257.071V405.679ZM257.071 370.851H219.646V337.035H257.071V370.851ZM257.071 336.022H219.646V302.206H257.071V336.022ZM295.509 997.768H258.084V963.952H295.509V997.768ZM295.509 962.939H258.084V929.123H295.509V962.939ZM295.509 928.111H258.084V894.295H295.509V928.111ZM295.509 893.282H258.084V859.466H295.509V893.282ZM295.509 858.453H258.084V824.637H295.509V858.453ZM295.509 823.624H258.084V789.808H295.509V823.624ZM295.509 788.796H258.084V754.98H295.509V788.796ZM295.509 753.967H258.084V720.151H295.509V753.967ZM295.509 719.138H258.084V685.322H295.509V719.138ZM295.509 684.309H258.084V650.493H295.509V684.309ZM295.509 649.481H258.084V615.665H295.509V649.481ZM295.509 614.652H258.084V580.836H295.509V614.652ZM295.509 579.823H258.084V546.007H295.509V579.823ZM295.509 544.994H258.084V511.178H295.509V544.994ZM295.509 510.166H258.084V476.35H295.509V510.166ZM295.509 475.337H258.084V441.521H295.509V475.337ZM295.509 440.508H258.084V406.692H295.509V440.508ZM295.509 405.679H258.084V371.863H295.509V405.679ZM295.509 370.851H258.084V337.035H295.509V370.851ZM295.509 336.022H258.084V302.206H295.509V336.022ZM333.947 997.768H296.522V963.952H333.947V997.768ZM333.947 962.939H296.522V929.123H333.947V962.939ZM333.947 928.111H296.522V894.295H333.947V928.111ZM333.947 893.282H296.522V859.466H333.947V893.282ZM333.947 858.453H296.522V824.637H333.947V858.453ZM333.947 823.624H296.522V789.808H333.947V823.624ZM333.947 788.796H296.522V754.98H333.947V788.796ZM333.947 753.967H296.522V720.151H333.947V753.967ZM333.947 719.138H296.522V685.322H333.947V719.138ZM333.947 684.309H296.522V650.493H333.947V684.309ZM333.947 649.481H296.522V615.665H333.947V649.481ZM333.947 614.652H296.522V580.836H333.947V614.652ZM333.947 579.823H296.522V546.007H333.947V579.823ZM333.947 544.994H296.522V511.178H333.947V544.994ZM333.947 510.166H296.522V476.35H333.947V510.166ZM333.947 475.337H296.522V441.521H333.947V475.337ZM333.947 440.508H296.522V406.692H333.947V440.508ZM333.947 405.679H296.522V371.863H333.947V405.679ZM333.947 370.851H296.522V337.035H333.947V370.851ZM333.947 336.022H296.522V302.206H333.947V336.022ZM372.384 997.768H334.959V963.952H372.384V997.768ZM372.384 962.939H334.959V929.123H372.384V962.939ZM372.384 928.111H334.959V894.295H372.384V928.111ZM372.384 893.282H334.959V859.466H372.384V893.282ZM372.384 858.453H334.959V824.637H372.384V858.453ZM372.384 823.624H334.959V789.808H372.384V823.624ZM372.384 788.796H334.959V754.98H372.384V788.796ZM372.384 753.967H334.959V720.151H372.384V753.967ZM372.384 719.138H334.959V685.322H372.384V719.138ZM372.384 684.309H334.959V650.493H372.384V684.309ZM372.384 649.481H334.959V615.665H372.384V649.481ZM372.384 614.652H334.959V580.836H372.384V614.652ZM372.384 579.823H334.959V546.007H372.384V579.823ZM372.384 544.994H334.959V511.178H372.384V544.994ZM372.384 510.166H334.959V476.35H372.384V510.166ZM372.384 475.337H334.959V441.521H372.384V475.337ZM372.384 440.508H334.959V406.692H372.384V440.508ZM372.384 405.679H334.959V371.863H372.384V405.679ZM372.384 370.851H334.959V337.035H372.384V370.851ZM372.384 336.022H334.959V302.206H372.384V336.022ZM410.822 997.768H373.397V963.952H410.822V997.768ZM410.822 962.939H373.397V929.123H410.822V962.939ZM410.822 928.111H373.397V894.295H410.822V928.111ZM410.822 893.282H373.397V859.466H410.822V893.282ZM410.822 858.453H373.397V824.637H410.822V858.453ZM410.822 823.624H373.397V789.808H410.822V823.624ZM410.822 788.796H373.397V754.98H410.822V788.796ZM410.822 753.967H373.397V720.151H410.822V753.967ZM410.822 719.138H373.397V685.322H410.822V719.138ZM410.822 684.309H373.397V650.493H410.822V684.309ZM410.822 649.481H373.397V615.665H410.822V649.481ZM410.822 614.652H373.397V580.836H410.822V614.652ZM410.822 579.823H373.397V546.007H410.822V579.823ZM410.822 544.994H373.397V511.178H410.822V544.994ZM410.822 510.166H373.397V476.35H410.822V510.166ZM410.822 475.337H373.397V441.521H410.822V475.337ZM410.822 440.508H373.397V406.692H410.822V440.508ZM410.822 405.679H373.397V371.863H410.822V405.679ZM410.822 370.851H373.397V337.035H410.822V370.851ZM410.822 336.022H373.397V302.206H410.822V336.022ZM449.26 997.768H411.835V963.952H449.26V997.768ZM449.26 962.939H411.835V929.123H449.26V962.939ZM449.26 928.111H411.835V894.295H449.26V928.111ZM449.26 893.282H411.835V859.466H449.26V893.282ZM449.26 858.453H411.835V824.637H449.26V858.453ZM449.26 823.624H411.835V789.808H449.26V823.624ZM449.26 788.796H411.835V754.98H449.26V788.796ZM449.26 753.967H411.835V720.151H449.26V753.967ZM449.26 719.138H411.835V685.322H449.26V719.138ZM449.26 684.309H411.835V650.493H449.26V684.309ZM449.26 649.481H411.835V615.665H449.26V649.481ZM449.26 614.652H411.835V580.836H449.26V614.652ZM449.26 579.823H411.835V546.007H449.26V579.823ZM449.26 544.994H411.835V511.178H449.26V544.994ZM449.26 510.166H411.835V476.35H449.26V510.166ZM449.26 475.337H411.835V441.521H449.26V475.337ZM449.26 440.508H411.835V406.692H449.26V440.508ZM449.26 405.679H411.835V371.863H449.26V405.679ZM449.26 370.851H411.835V337.035H449.26V370.851ZM449.26 336.022H411.835V302.206H449.26V336.022ZM487.697 997.768H450.273V963.952H487.697V997.768ZM487.697 962.939H450.273V929.123H487.697V962.939ZM487.697 928.111H450.273V894.295H487.697V928.111ZM487.697 893.282H450.273V859.466H487.697V893.282ZM487.697 858.453H450.273V824.637H487.697V858.453ZM487.697 823.624H450.273V789.808H487.697V823.624ZM487.697 788.796H450.273V754.98H487.697V788.796ZM487.697 753.967H450.273V720.151H487.697V753.967ZM487.697 719.138H450.273V685.322H487.697V719.138ZM487.697 684.309H450.273V650.493H487.697V684.309ZM487.697 649.481H450.273V615.665H487.697V649.481ZM487.697 614.652H450.273V580.836H487.697V614.652ZM487.697 579.823H450.273V546.007H487.697V579.823ZM487.697 544.994H450.273V511.178H487.697V544.994ZM487.697 510.166H450.273V476.35H487.697V510.166ZM487.697 475.337H450.273V441.521H487.697V475.337ZM487.697 440.508H450.273V406.692H487.697V440.508ZM487.697 405.679H450.273V371.863H487.697V405.679ZM487.697 370.851H450.273V337.035H487.697V370.851ZM487.697 336.022H450.273V302.206H487.697V336.022ZM526.135 997.768H488.71V963.952H526.135V997.768ZM526.135 962.939H488.71V929.123H526.135V962.939ZM526.135 928.111H488.71V894.295H526.135V928.111ZM526.135 893.282H488.71V859.466H526.135V893.282ZM526.135 858.453H488.71V824.637H526.135V858.453ZM526.135 823.624H488.71V789.808H526.135V823.624ZM526.135 788.796H488.71V754.98H526.135V788.796ZM526.135 753.967H488.71V720.151H526.135V753.967ZM526.135 719.138H488.71V685.322H526.135V719.138ZM526.135 684.309H488.71V650.493H526.135V684.309ZM526.135 649.481H488.71V615.665H526.135V649.481ZM526.135 614.652H488.71V580.836H526.135V614.652ZM526.135 579.823H488.71V546.007H526.135V579.823ZM526.135 544.994H488.71V511.178H526.135V544.994ZM526.135 510.166H488.71V476.35H526.135V510.166ZM526.135 475.337H488.71V441.521H526.135V475.337ZM526.135 440.508H488.71V406.692H526.135V440.508ZM526.135 405.679H488.71V371.863H526.135V405.679ZM526.135 370.851H488.71V337.035H526.135V370.851ZM526.135 336.022H488.71V302.206H526.135V336.022ZM564.547 997.768H527.122V963.952H564.547V997.768ZM564.547 962.939H527.122V929.123H564.547V962.939ZM564.547 928.111H527.122V894.295H564.547V928.111ZM564.547 893.282H527.122V859.466H564.547V893.282ZM564.547 858.453H527.122V824.637H564.547V858.453ZM564.547 823.624H527.122V789.808H564.547V823.624ZM564.547 788.796H527.122V754.98H564.547V788.796ZM564.547 753.967H527.122V720.151H564.547V753.967ZM564.547 719.138H527.122V685.322H564.547V719.138ZM564.547 684.309H527.122V650.493H564.547V684.309ZM564.547 649.481H527.122V615.665H564.547V649.481ZM564.547 614.652H527.122V580.836H564.547V614.652ZM564.547 579.823H527.122V546.007H564.547V579.823ZM564.547 544.994H527.122V511.178H564.547V544.994ZM564.547 510.166H527.122V476.35H564.547V510.166ZM564.547 475.337H527.122V441.521H564.547V475.337ZM564.547 440.508H527.122V406.692H564.547V440.508ZM564.547 405.679H527.122V371.863H564.547V405.679ZM564.547 370.851H527.122V337.035H564.547V370.851ZM564.547 336.022H527.122V302.206H564.547V336.022ZM602.984 997.768H565.56V963.952H602.984V997.768ZM602.984 962.939H565.56V929.123H602.984V962.939ZM602.984 928.111H565.56V894.295H602.984V928.111ZM602.984 893.282H565.56V859.466H602.984V893.282ZM602.984 858.453H565.56V824.637H602.984V858.453ZM602.984 823.624H565.56V789.808H602.984V823.624ZM602.984 788.796H565.56V754.98H602.984V788.796ZM602.984 753.967H565.56V720.151H602.984V753.967ZM602.984 719.138H565.56V685.322H602.984V719.138ZM602.984 684.309H565.56V650.493H602.984V684.309ZM602.984 649.481H565.56V615.665H602.984V649.481ZM602.984 614.652H565.56V580.836H602.984V614.652ZM602.984 579.823H565.56V546.007H602.984V579.823ZM602.984 544.994H565.56V511.178H602.984V544.994ZM602.984 510.166H565.56V476.35H602.984V510.166ZM602.984 475.337H565.56V441.521H602.984V475.337ZM602.984 440.508H565.56V406.692H602.984V440.508ZM602.984 405.679H565.56V371.863H602.984V405.679ZM602.984 370.851H565.56V337.035H602.984V370.851ZM602.984 336.022H565.56V302.206H602.984V336.022ZM641.422 997.768H603.997V963.952H641.422V997.768ZM641.422 962.939H603.997V929.123H641.422V962.939ZM641.422 928.111H603.997V894.295H641.422V928.111ZM641.422 893.282H603.997V859.466H641.422V893.282ZM641.422 858.453H603.997V824.637H641.422V858.453ZM641.422 823.624H603.997V789.808H641.422V823.624ZM641.422 788.796H603.997V754.98H641.422V788.796ZM641.422 753.967H603.997V720.151H641.422V753.967ZM641.422 719.138H603.997V685.322H641.422V719.138ZM641.422 684.309H603.997V650.493H641.422V684.309ZM641.422 649.481H603.997V615.665H641.422V649.481ZM641.422 614.652H603.997V580.836H641.422V614.652ZM641.422 579.823H603.997V546.007H641.422V579.823ZM641.422 544.994H603.997V511.178H641.422V544.994ZM641.422 510.166H603.997V476.35H641.422V510.166ZM641.422 475.337H603.997V441.521H641.422V475.337ZM641.422 440.508H603.997V406.692H641.422V440.508ZM641.422 405.679H603.997V371.863H641.422V405.679ZM641.422 370.851H603.997V337.035H641.422V370.851ZM641.422 336.022H603.997V302.206H641.422V336.022ZM679.86 997.768H642.435V963.952H679.86V997.768ZM679.86 962.939H642.435V929.123H679.86V962.939ZM679.86 928.111H642.435V894.295H679.86V928.111ZM679.86 893.282H642.435V859.466H679.86V893.282ZM679.86 858.453H642.435V824.637H679.86V858.453ZM679.86 823.624H642.435V789.808H679.86V823.624ZM679.86 788.796H642.435V754.98H679.86V788.796ZM679.86 753.967H642.435V720.151H679.86V753.967ZM679.86 719.138H642.435V685.322H679.86V719.138ZM679.86 684.309H642.435V650.493H679.86V684.309ZM679.86 649.481H642.435V615.665H679.86V649.481ZM679.86 614.652H642.435V580.836H679.86V614.652ZM679.86 579.823H642.435V546.007H679.86V579.823ZM679.86 544.994H642.435V511.178H679.86V544.994ZM679.86 510.166H642.435V476.35H679.86V510.166ZM679.86 475.337H642.435V441.521H679.86V475.337ZM679.86 440.508H642.435V406.692H679.86V440.508ZM679.86 405.679H642.435V371.863H679.86V405.679ZM679.86 370.851H642.435V337.035H679.86V370.851ZM679.86 336.022H642.435V302.206H679.86V336.022ZM718.297 997.768H680.873V963.952H718.297V997.768ZM718.297 962.939H680.873V929.123H718.297V962.939ZM718.297 928.111H680.873V894.295H718.297V928.111ZM718.297 893.282H680.873V859.466H718.297V893.282ZM718.297 858.453H680.873V824.637H718.297V858.453ZM718.297 823.624H680.873V789.808H718.297V823.624ZM718.297 788.796H680.873V754.98H718.297V788.796ZM718.297 753.967H680.873V720.151H718.297V753.967ZM718.297 719.138H680.873V685.322H718.297V719.138ZM718.297 684.309H680.873V650.493H718.297V684.309ZM718.297 649.481H680.873V615.665H718.297V649.481ZM718.297 614.652H680.873V580.836H718.297V614.652ZM718.297 579.823H680.873V546.007H718.297V579.823ZM718.297 544.994H680.873V511.178H718.297V544.994ZM718.297 510.166H680.873V476.35H718.297V510.166ZM718.297 475.337H680.873V441.521H718.297V475.337ZM718.297 440.508H680.873V406.692H718.297V440.508ZM718.297 405.679H680.873V371.863H718.297V405.679ZM718.297 370.851H680.873V337.035H718.297V370.851ZM718.297 336.022H680.873V302.206H718.297V336.022ZM756.735 997.768H719.31V963.952H756.735V997.768ZM756.735 962.939H719.31V929.123H756.735V962.939ZM756.735 928.111H719.31V894.295H756.735V928.111ZM756.735 893.282H719.31V859.466H756.735V893.282ZM756.735 858.453H719.31V824.637H756.735V858.453ZM756.735 823.624H719.31V789.808H756.735V823.624ZM756.735 788.796H719.31V754.98H756.735V788.796ZM756.735 753.967H719.31V720.151H756.735V753.967ZM756.735 719.138H719.31V685.322H756.735V719.138ZM756.735 684.309H719.31V650.493H756.735V684.309ZM756.735 649.481H719.31V615.665H756.735V649.481ZM756.735 614.652H719.31V580.836H756.735V614.652ZM756.735 579.823H719.31V546.007H756.735V579.823ZM756.735 544.994H719.31V511.178H756.735V544.994ZM756.735 510.166H719.31V476.35H756.735V510.166ZM756.735 475.337H719.31V441.521H756.735V475.337ZM756.735 440.508H719.31V406.692H756.735V440.508ZM756.735 405.679H719.31V371.863H756.735V405.679ZM756.735 370.851H719.31V337.035H756.735V370.851ZM756.735 336.022H719.31V302.206H756.735V336.022ZM795.173 997.768H757.748V963.952H795.173V997.768ZM795.173 962.939H757.748V929.123H795.173V962.939ZM795.173 928.111H757.748V894.295H795.173V928.111ZM795.173 893.282H757.748V859.466H795.173V893.282ZM795.173 858.453H757.748V824.637H795.173V858.453ZM795.173 823.624H757.748V789.808H795.173V823.624ZM795.173 788.796H757.748V754.98H795.173V788.796ZM795.173 753.967H757.748V720.151H795.173V753.967ZM795.173 719.138H757.748V685.322H795.173V719.138ZM795.173 684.309H757.748V650.493H795.173V684.309ZM795.173 649.481H757.748V615.665H795.173V649.481ZM795.173 614.652H757.748V580.836H795.173V614.652ZM795.173 579.823H757.748V546.007H795.173V579.823ZM795.173 544.994H757.748V511.178H795.173V544.994ZM795.173 510.166H757.748V476.35H795.173V510.166ZM795.173 475.337H757.748V441.521H795.173V475.337ZM795.173 440.508H757.748V406.692H795.173V440.508ZM795.173 405.679H757.748V371.863H795.173V405.679ZM795.173 370.851H757.748V337.035H795.173V370.851ZM795.173 336.022H757.748V302.206H795.173V336.022ZM833.61 997.768H796.186V963.952H833.61V997.768ZM833.61 962.939H796.186V929.123H833.61V962.939ZM833.61 928.111H796.186V894.295H833.61V928.111ZM833.61 893.282H796.186V859.466H833.61V893.282ZM833.61 858.453H796.186V824.637H833.61V858.453ZM833.61 823.624H796.186V789.808H833.61V823.624ZM833.61 788.796H796.186V754.98H833.61V788.796ZM833.61 753.967H796.186V720.151H833.61V753.967ZM833.61 719.138H796.186V685.322H833.61V719.138ZM833.61 684.309H796.186V650.493H833.61V684.309ZM833.61 649.481H796.186V615.665H833.61V649.481ZM833.61 614.652H796.186V580.836H833.61V614.652ZM833.61 579.823H796.186V546.007H833.61V579.823ZM833.61 544.994H796.186V511.178H833.61V544.994ZM833.61 510.166H796.186V476.35H833.61V510.166ZM833.61 475.337H796.186V441.521H833.61V475.337ZM833.61 440.508H796.186V406.692H833.61V440.508ZM833.61 405.679H796.186V371.863H833.61V405.679ZM833.61 370.851H796.186V337.035H833.61V370.851ZM833.61 336.022H796.186V302.206H833.61V336.022ZM872.048 997.768H834.623V963.952H872.048V997.768ZM872.048 962.939H834.623V929.123H872.048V962.939ZM872.048 928.111H834.623V894.295H872.048V928.111ZM872.048 893.282H834.623V859.466H872.048V893.282ZM872.048 858.453H834.623V824.637H872.048V858.453ZM872.048 823.624H834.623V789.808H872.048V823.624ZM872.048 788.796H834.623V754.98H872.048V788.796ZM872.048 753.967H834.623V720.151H872.048V753.967ZM872.048 719.138H834.623V685.322H872.048V719.138ZM872.048 684.309H834.623V650.493H872.048V684.309ZM872.048 649.481H834.623V615.665H872.048V649.481ZM872.048 614.652H834.623V580.836H872.048V614.652ZM872.048 579.823H834.623V546.007H872.048V579.823ZM872.048 544.994H834.623V511.178H872.048V544.994ZM872.048 510.166H834.623V476.35H872.048V510.166ZM872.048 475.337H834.623V441.521H872.048V475.337ZM872.048 440.508H834.623V406.692H872.048V440.508ZM872.048 405.679H834.623V371.863H872.048V405.679ZM872.048 370.851H834.623V337.035H872.048V370.851ZM872.048 336.022H834.623V302.206H872.048V336.022ZM910.486 997.768H873.061V963.952H910.486V997.768ZM910.486 962.939H873.061V929.123H910.486V962.939ZM910.486 928.111H873.061V894.295H910.486V928.111ZM910.486 893.282H873.061V859.466H910.486V893.282ZM910.486 858.453H873.061V824.637H910.486V858.453ZM910.486 823.624H873.061V789.808H910.486V823.624ZM910.486 788.796H873.061V754.98H910.486V788.796ZM910.486 753.967H873.061V720.151H910.486V753.967ZM910.486 719.138H873.061V685.322H910.486V719.138ZM910.486 684.309H873.061V650.493H910.486V684.309ZM910.486 649.481H873.061V615.665H910.486V649.481ZM910.486 614.652H873.061V580.836H910.486V614.652ZM910.486 579.823H873.061V546.007H910.486V579.823ZM910.486 544.994H873.061V511.178H910.486V544.994ZM910.486 510.166H873.061V476.35H910.486V510.166ZM910.486 475.337H873.061V441.521H910.486V475.337ZM910.486 440.508H873.061V406.692H910.486V440.508ZM910.486 405.679H873.061V371.863H910.486V405.679ZM910.486 370.851H873.061V337.035H910.486V370.851ZM910.486 336.022H873.061V302.206H910.486V336.022ZM948.923 997.768H911.499V963.952H948.923V997.768ZM948.923 962.939H911.499V929.123H948.923V962.939ZM948.923 928.111H911.499V894.295H948.923V928.111ZM948.923 893.282H911.499V859.466H948.923V893.282ZM948.923 858.453H911.499V824.637H948.923V858.453ZM948.923 823.624H911.499V789.808H948.923V823.624ZM948.923 788.796H911.499V754.98H948.923V788.796ZM948.923 753.967H911.499V720.151H948.923V753.967ZM948.923 719.138H911.499V685.322H948.923V719.138ZM948.923 684.309H911.499V650.493H948.923V684.309ZM948.923 649.481H911.499V615.665H948.923V649.481ZM948.923 614.652H911.499V580.836H948.923V614.652ZM948.923 579.823H911.499V546.007H948.923V579.823ZM948.923 544.994H911.499V511.178H948.923V544.994ZM948.923 510.166H911.499V476.35H948.923V510.166ZM948.923 475.337H911.499V441.521H948.923V475.337ZM948.923 440.508H911.499V406.692H948.923V440.508ZM948.923 405.679H911.499V371.863H948.923V405.679ZM948.923 370.851H911.499V337.035H948.923V370.851ZM948.923 336.022H911.499V302.206H948.923V336.022ZM987.361 997.768H949.936V963.952H987.361V997.768ZM987.361 962.939H949.936V929.123H987.361V962.939ZM987.361 928.111H949.936V894.295H987.361V928.111ZM987.361 893.282H949.936V859.466H987.361V893.282ZM987.361 858.453H949.936V824.637H987.361V858.453ZM987.361 823.624H949.936V789.808H987.361V823.624ZM987.361 788.796H949.936V754.98H987.361V788.796ZM987.361 753.967H949.936V720.151H987.361V753.967ZM987.361 719.138H949.936V685.322H987.361V719.138ZM987.361 684.309H949.936V650.493H987.361V684.309ZM987.361 649.481H949.936V615.665H987.361V649.481ZM987.361 614.652H949.936V580.836H987.361V614.652ZM987.361 579.823H949.936V546.007H987.361V579.823ZM987.361 544.994H949.936V511.178H987.361V544.994ZM987.361 510.166H949.936V476.35H987.361V510.166ZM987.361 475.337H949.936V441.521H987.361V475.337ZM987.361 440.508H949.936V406.692H987.361V440.508ZM987.361 405.679H949.936V371.863H987.361V405.679ZM987.361 370.851H949.936V337.035H987.361V370.851ZM987.361 336.022H949.936V302.206H987.361V336.022ZM1025.8 997.768H988.374V963.952H1025.8V997.768ZM1025.8 962.939H988.374V929.123H1025.8V962.939ZM1025.8 928.111H988.374V894.295H1025.8V928.111ZM1025.8 893.282H988.374V859.466H1025.8V893.282ZM1025.8 858.453H988.374V824.637H1025.8V858.453ZM1025.8 823.624H988.374V789.808H1025.8V823.624ZM1025.8 788.796H988.374V754.98H1025.8V788.796ZM1025.8 753.967H988.374V720.151H1025.8V753.967ZM1025.8 719.138H988.374V685.322H1025.8V719.138ZM1025.8 684.309H988.374V650.493H1025.8V684.309ZM1025.8 649.481H988.374V615.665H1025.8V649.481ZM1025.8 614.652H988.374V580.836H1025.8V614.652ZM1025.8 579.823H988.374V546.007H1025.8V579.823ZM1025.8 544.994H988.374V511.178H1025.8V544.994ZM1025.8 510.166H988.374V476.35H1025.8V510.166ZM1025.8 475.337H988.374V441.521H1025.8V475.337ZM1025.8 440.508H988.374V406.692H1025.8V440.508ZM1025.8 405.679H988.374V371.863H1025.8V405.679ZM1025.8 370.851H988.374V337.035H1025.8V370.851ZM1025.8 336.022H988.374V302.206H1025.8V336.022ZM1064.24 997.768H1026.81V963.952H1064.24V997.768ZM1064.24 962.939H1026.81V929.123H1064.24V962.939ZM1064.24 928.111H1026.81V894.295H1064.24V928.111ZM1064.24 893.282H1026.81V859.466H1064.24V893.282ZM1064.24 858.453H1026.81V824.637H1064.24V858.453ZM1064.24 823.624H1026.81V789.808H1064.24V823.624ZM1064.24 788.796H1026.81V754.98H1064.24V788.796ZM1064.24 753.967H1026.81V720.151H1064.24V753.967ZM1064.24 719.138H1026.81V685.322H1064.24V719.138ZM1064.24 684.309H1026.81V650.493H1064.24V684.309ZM1064.24 649.481H1026.81V615.665H1064.24V649.481ZM1064.24 614.652H1026.81V580.836H1064.24V614.652ZM1064.24 579.823H1026.81V546.007H1064.24V579.823ZM1064.24 544.994H1026.81V511.178H1064.24V544.994ZM1064.24 510.166H1026.81V476.35H1064.24V510.166ZM1064.24 475.337H1026.81V441.521H1064.24V475.337ZM1064.24 440.508H1026.81V406.692H1064.24V440.508ZM1064.24 405.679H1026.81V371.863H1064.24V405.679ZM1064.24 370.851H1026.81V337.035H1064.24V370.851ZM1064.24 336.022H1026.81V302.206H1064.24V336.022ZM1102.67 997.768H1065.25V963.952H1102.67V997.768ZM1102.67 962.939H1065.25V929.123H1102.67V962.939ZM1102.67 928.111H1065.25V894.295H1102.67V928.111ZM1102.67 893.282H1065.25V859.466H1102.67V893.282ZM1102.67 858.453H1065.25V824.637H1102.67V858.453ZM1102.67 823.624H1065.25V789.808H1102.67V823.624ZM1102.67 788.796H1065.25V754.98H1102.67V788.796ZM1102.67 753.967H1065.25V720.151H1102.67V753.967ZM1102.67 719.138H1065.25V685.322H1102.67V719.138ZM1102.67 684.309H1065.25V650.493H1102.67V684.309ZM1102.67 649.481H1065.25V615.665H1102.67V649.481ZM1102.67 614.652H1065.25V580.836H1102.67V614.652ZM1102.67 579.823H1065.25V546.007H1102.67V579.823ZM1102.67 544.994H1065.25V511.178H1102.67V544.994ZM1102.67 510.166H1065.25V476.35H1102.67V510.166ZM1102.67 475.337H1065.25V441.521H1102.67V475.337ZM1102.67 440.508H1065.25V406.692H1102.67V440.508ZM1102.67 405.679H1065.25V371.863H1102.67V405.679ZM1102.67 370.851H1065.25V337.035H1102.67V370.851ZM1102.67 336.022H1065.25V302.206H1102.67V336.022ZM1141.11 997.768H1103.69V963.952H1141.11V997.768ZM1141.11 962.939H1103.69V929.123H1141.11V962.939ZM1141.11 928.111H1103.69V894.295H1141.11V928.111ZM1141.11 893.282H1103.69V859.466H1141.11V893.282ZM1141.11 858.453H1103.69V824.637H1141.11V858.453ZM1141.11 823.624H1103.69V789.808H1141.11V823.624ZM1141.11 788.796H1103.69V754.98H1141.11V788.796ZM1141.11 753.967H1103.69V720.151H1141.11V753.967ZM1141.11 719.138H1103.69V685.322H1141.11V719.138ZM1141.11 684.309H1103.69V650.493H1141.11V684.309ZM1141.11 649.481H1103.69V615.665H1141.11V649.481ZM1141.11 614.652H1103.69V580.836H1141.11V614.652ZM1141.11 579.823H1103.69V546.007H1141.11V579.823ZM1141.11 544.994H1103.69V511.178H1141.11V544.994ZM1141.11 510.166H1103.69V476.35H1141.11V510.166ZM1141.11 475.337H1103.69V441.521H1141.11V475.337ZM1141.11 440.508H1103.69V406.692H1141.11V440.508ZM1141.11 405.679H1103.69V371.863H1141.11V405.679ZM1141.11 370.851H1103.69V337.035H1141.11V370.851ZM1141.11 336.022H1103.69V302.206H1141.11V336.022Z"
                  fill="url(#paint1_linear_987_7009)"/>
            <path d="M-29.1075 667.479V645.273H-51.3131V627.586H-29.1075V605.38H-11.421V627.586H10.7845V645.273H-11.421V667.479H-29.1075ZM-31.0034 669.375H-9.52515V647.169H12.6804V625.69H-9.52515V603.484H-31.0034V625.69H-53.209V647.169H-31.0034V669.375Z"
                  fill="url(#paint2_linear_987_7009)"/>
            <path d="M64.9349 616.548C64.9349 614.418 66.6749 612.678 68.8046 612.678C70.9342 612.678 72.6743 614.418 72.6743 616.548C72.6743 618.677 70.9342 620.418 68.8046 620.418C66.6749 620.418 64.9349 618.677 64.9349 616.548Z"
                  fill="url(#paint3_linear_987_7009)"/>
            <path d="M28.4969 771.914H68.9344V812.352H108.047V771.914H148.485V732.773H108.047V692.361H68.9344V732.773H28.4969V771.914Z"
                  fill="url(#paint4_linear_987_7009)"/>
            <path d="M778.785 699.036H804.886V725.138H830.156V699.036H856.257V673.791H830.156V647.688H804.886V673.791H778.785V699.036Z"
                  fill="url(#paint5_linear_987_7009)"/>
            <path d="M208.531 804.119V779.497H183.91V759.888H208.531V735.267H228.165V759.888H252.786V779.497H228.165V804.119H208.531ZM206.427 806.223H230.243V781.601H254.864V757.785H230.243V733.163H206.427V757.785H181.806V781.601H206.427V806.223Z"
                  fill="url(#paint6_linear_987_7009)"/>
            <path d="M918.095 775.134C918.095 773.212 919.654 771.654 921.576 771.654C923.497 771.654 925.056 773.212 925.056 775.134C925.056 777.056 923.497 778.614 921.576 778.614C919.654 778.614 918.095 777.056 918.095 775.134Z"
                  fill="url(#paint7_linear_987_7009)"/>
            <path d="M815.327 613.223V586.68H788.784V565.538H815.327V538.995H836.467V565.538H863.01V586.68H836.467V613.223H815.327ZM813.067 615.483H838.753V588.939H865.296V563.253H838.753V536.709H813.067V563.253H786.524V588.939H813.067V615.483Z"
                  fill="url(#paint8_linear_987_7009)"/>
            <path d="M6.55127 579.745V554.24H-18.9528V533.93H6.55127V508.425H26.8608V533.93H52.3647V554.24H26.8608V579.745H6.55127ZM4.36963 581.927H29.0425V556.422H54.5464V531.749H29.0425V506.244H4.36963V531.749H-21.1343V556.422H4.36963V581.927Z"
                  fill="url(#paint9_linear_987_7009)"/>
            <path d="M1033.59 748.746H1096.08V811.236H1156.51V748.746H1219V688.283H1156.51V625.82H1096.08V688.283H1033.59V748.746Z"
                  fill="url(#paint10_linear_987_7009)"/>
            <path d="M983.206 701.789C983.206 698.152 986.166 695.192 989.802 695.192C993.438 695.192 996.399 698.152 996.399 701.789C996.399 705.425 993.438 708.386 989.802 708.386C986.166 708.386 983.206 705.425 983.206 701.789Z"
                  fill="url(#paint11_linear_987_7009)"/>
            <path d="M-108.788 597.588V578.213H-128.163V562.785H-108.788V543.41H-93.3608V562.785H-73.9862V578.213H-93.3608V597.588H-108.788ZM-110.45 599.25H-91.7246V579.875H-72.35V561.149H-91.7246V541.774H-110.45V561.149H-129.825V579.875H-110.45V599.25Z"
                  fill="url(#paint12_linear_987_7009)"/>
            <path d="M1090.65 647.663V593.017H1036.01V549.462H1090.65V494.816H1134.2V549.462H1188.85V593.017H1134.2V647.663H1090.65ZM1085.97 652.337H1138.88V597.692H1193.52V544.812H1138.88V490.167H1086V544.812H1031.36V597.692H1086V652.337H1085.97Z"
                  fill="url(#paint13_linear_987_7009)"/>
            <path d="M559.145 631.793H609.503V682.154H658.251V631.793H708.61V583.044H658.251V532.684H609.503V583.044H559.145V631.793Z"
                  fill="url(#paint14_linear_987_7009)"/>
            <path d="M200.298 553.721C196.97 553.721 194.272 556.419 194.272 559.747C194.272 563.074 196.97 565.772 200.298 565.772C203.626 565.772 206.323 563.074 206.323 559.747C206.323 556.419 203.626 553.721 200.298 553.721Z"
                  fill="url(#paint15_linear_987_7009)"/>
            <path d="M195.857 679.894H220.14V704.178H243.644V679.894H267.927V656.389H243.644V632.105H220.14V656.389H195.857V679.894Z"
                  fill="url(#paint16_linear_987_7009)"/>
            <path d="M930.666 666.051V641.092H905.707V621.197H930.666V596.238H950.56V621.197H975.518V641.092H950.56V666.051H930.666ZM928.536 668.181H952.689V643.221H977.648V619.067H952.689V594.108H928.536V619.067H903.577V643.221H928.536V668.181Z"
                  fill="url(#paint17_linear_987_7009)"/>
            <path d="M541.198 717.502C541.198 711.554 546.003 706.749 551.951 706.749C557.898 706.749 562.703 711.554 562.703 717.502C562.703 723.449 557.898 728.254 551.951 728.254C546.003 728.254 541.198 723.449 541.198 717.502Z"
                  fill="url(#paint18_linear_987_7009)"/>
            <path d="M934.379 538.839C934.379 532.891 939.184 528.086 945.132 528.086C951.079 528.086 955.884 532.891 955.884 538.839C955.884 544.787 951.079 549.591 945.132 549.591C939.184 549.591 934.379 544.787 934.379 538.839Z"
                  fill="url(#paint19_linear_987_7009)"/>
            <path d="M711.051 716.125V662.129H657.057V619.093H711.051V565.097H754.086V619.093H808.081V662.129H754.086V716.125H711.051ZM706.454 720.722H758.709V666.726H812.703V614.47H758.709V560.474H706.454V614.47H652.46V666.726H706.454V720.722Z"
                  fill="url(#paint20_linear_987_7009)"/>
            <path d="M352.153 872.634V811.262H290.782V762.356H352.153V700.983H401.057V762.356H462.427V811.262H401.057V872.634H352.153ZM346.906 877.88H406.303V816.508H467.673V757.109H406.303V695.737H346.906V757.109H285.536V816.508H346.906V877.88Z"
                  fill="url(#paint21_linear_987_7009)"/>
            <path d="M415.263 583.823H435.729V604.263H455.519V583.823H475.958V564.032H455.519V543.592H435.729V564.032H415.263V583.823Z"
                  fill="url(#paint22_linear_987_7009)"/>
            <path d="M448.091 780.095C448.091 778.199 449.623 776.667 451.519 776.667C453.415 776.667 454.947 778.199 454.947 780.095C454.947 781.991 453.415 783.523 451.519 783.523C449.623 783.523 448.091 781.991 448.091 780.095Z"
                  fill="url(#paint23_linear_987_7009)"/>
            <path d="M-118.969 874.919V805.781H-188.104V750.668H-118.969V681.53H-63.8573V750.668H5.27856V805.781H-63.8573V874.919H-118.969ZM-124.864 880.815H-57.9618V811.677H11.1741V744.773H-57.9618V675.635H-124.864V744.773H-194V811.677H-124.864V880.815Z"
                  fill="url(#paint24_linear_987_7009)"/>
            <path d="M510.63 636.494V612.964H487.1V594.212H510.63V570.681H529.381V594.212H552.911V612.964H529.381V636.494H510.63ZM508.63 638.494H531.407V614.963H554.937V592.186H531.407V568.655H508.63V592.186H485.1V614.963H508.63V638.494Z"
                  fill="url(#paint25_linear_987_7009)"/>
            <path d="M617.009 754.434C617.009 752.149 618.879 750.279 621.164 750.279C623.45 750.279 625.32 752.149 625.32 754.434C625.32 756.72 623.45 758.59 621.164 758.59C618.879 758.59 617.009 756.72 617.009 754.434Z"
                  fill="url(#paint26_linear_987_7009)"/>
            <path d="M88.8026 584.758H119.293V615.223H148.797V584.758H179.287V555.227H148.797V524.736H119.293V555.227H88.8026V584.758Z"
                  fill="url(#paint27_linear_987_7009)"/>
            <path d="M712.636 814.742V786.588H684.483V764.148H712.636V735.994H735.075V764.148H763.228V786.588H735.075V814.742H712.636ZM710.22 817.157H737.464V789.003H765.617V761.758H737.464V733.605H710.22V761.758H682.067V789.003H710.22V817.157Z"
                  fill="url(#paint28_linear_987_7009)"/>
            <path d="M231.36 615.873H306.495V690.984H379.189V615.873H454.298V543.176H379.189V468.065H306.495V543.176H231.36V615.873Z"
                  fill="url(#paint29_linear_987_7009)"/>
        </g>
        <path d="M160 375.183H171.01V393.287H188.358V375.183H199.368V420.7H188.358V401.569H171.01V420.7H160V375.183Z"
              fill="#001949"/>
        <path d="M206.851 386.867H217.527V420.7H206.851V386.867ZM206.184 378.008C206.184 376.595 206.74 375.418 207.852 374.477C208.964 373.492 210.387 373 212.122 373C213.857 373 215.28 373.492 216.392 374.477C217.549 375.418 218.127 376.595 218.127 378.008C218.127 379.506 217.571 380.747 216.459 381.731C215.347 382.673 213.901 383.143 212.122 383.143C210.387 383.143 208.964 382.673 207.852 381.731C206.74 380.789 206.184 379.548 206.184 378.008Z"
              fill="#001949"/>
        <path d="M235.812 397.598L222.4 375H235.078L243.085 390.215L251.025 375H263.77L250.425 397.598L264.037 420.517H251.292L243.085 404.853L234.878 420.517H222L235.812 397.598Z"
              fill="white"/>
        <path d="M237.775 397.075L224.363 374.477H237.041L245.048 389.692L252.988 374.477H265.733L252.388 397.075L266 419.994H253.255L245.048 404.33L236.841 419.994H223.963L237.775 397.075Z"
              fill="#3C0DF9"/>
        <path d="M161.564 441.924L163.405 434.758H164.37L164.262 436.605L162.294 444H161.291L161.564 441.924ZM160.186 434.758L161.678 441.867L161.811 444H160.745L158.606 434.758H160.186ZM166.458 441.848L167.931 434.758H169.517L167.378 444H166.312L166.458 441.848ZM164.744 434.758L166.566 441.943L166.832 444H165.829L163.893 436.605L163.792 434.758H164.744ZM184.547 442.737V444H179.641V442.737H184.547ZM180.091 434.758V444H178.498V434.758H180.091ZM183.906 438.617V439.861H179.641V438.617H183.906ZM184.516 434.758V436.027H179.641V434.758H184.516ZM199.438 442.737V444H194.798V442.737H199.438ZM195.242 434.758V444H193.649V434.758H195.242ZM213.509 440.991H215.096C215.045 441.596 214.876 442.136 214.588 442.61C214.301 443.08 213.896 443.45 213.376 443.721C212.855 443.992 212.223 444.127 211.478 444.127C210.907 444.127 210.393 444.025 209.936 443.822C209.479 443.615 209.087 443.323 208.761 442.946C208.435 442.565 208.186 442.106 208.012 441.569C207.843 441.031 207.758 440.431 207.758 439.766V438.998C207.758 438.334 207.845 437.733 208.019 437.195C208.196 436.658 208.45 436.199 208.78 435.818C209.11 435.433 209.506 435.139 209.967 434.936C210.433 434.732 210.955 434.631 211.535 434.631C212.271 434.631 212.894 434.766 213.401 435.037C213.909 435.308 214.303 435.682 214.582 436.161C214.866 436.639 215.039 437.187 215.103 437.805H213.516C213.473 437.407 213.38 437.066 213.236 436.783C213.097 436.499 212.889 436.283 212.614 436.135C212.339 435.983 211.979 435.907 211.535 435.907C211.171 435.907 210.854 435.974 210.583 436.11C210.312 436.245 210.086 436.444 209.904 436.707C209.722 436.969 209.584 437.293 209.491 437.678C209.402 438.059 209.358 438.494 209.358 438.985V439.766C209.358 440.232 209.398 440.655 209.479 441.036C209.563 441.412 209.69 441.736 209.859 442.007C210.033 442.278 210.253 442.487 210.52 442.635C210.786 442.783 211.106 442.857 211.478 442.857C211.931 442.857 212.297 442.785 212.576 442.642C212.86 442.498 213.073 442.288 213.217 442.013C213.365 441.734 213.463 441.393 213.509 440.991ZM231.713 439.125V439.633C231.713 440.331 231.622 440.957 231.44 441.512C231.258 442.066 230.998 442.538 230.659 442.927C230.325 443.317 229.923 443.615 229.453 443.822C228.984 444.025 228.463 444.127 227.892 444.127C227.325 444.127 226.806 444.025 226.337 443.822C225.871 443.615 225.467 443.317 225.124 442.927C224.781 442.538 224.515 442.066 224.324 441.512C224.138 440.957 224.045 440.331 224.045 439.633V439.125C224.045 438.427 224.138 437.803 224.324 437.252C224.511 436.698 224.773 436.226 225.112 435.837C225.454 435.443 225.858 435.145 226.324 434.942C226.794 434.735 227.312 434.631 227.879 434.631C228.45 434.631 228.971 434.735 229.441 434.942C229.91 435.145 230.314 435.443 230.653 435.837C230.992 436.226 231.252 436.698 231.434 437.252C231.62 437.803 231.713 438.427 231.713 439.125ZM230.12 439.633V439.112C230.12 438.596 230.069 438.141 229.967 437.748C229.87 437.35 229.724 437.018 229.529 436.751C229.339 436.48 229.104 436.277 228.825 436.142C228.546 436.002 228.23 435.932 227.879 435.932C227.528 435.932 227.215 436.002 226.94 436.142C226.665 436.277 226.43 436.48 226.235 436.751C226.045 437.018 225.899 437.35 225.797 437.748C225.696 438.141 225.645 438.596 225.645 439.112V439.633C225.645 440.149 225.696 440.606 225.797 441.004C225.899 441.402 226.047 441.738 226.241 442.013C226.44 442.284 226.677 442.489 226.952 442.629C227.227 442.764 227.541 442.832 227.892 442.832C228.247 442.832 228.563 442.764 228.838 442.629C229.113 442.489 229.345 442.284 229.536 442.013C229.726 441.738 229.87 441.402 229.967 441.004C230.069 440.606 230.12 440.149 230.12 439.633ZM241.754 434.758H243.176L245.848 441.886L248.514 434.758H249.936L246.407 444H245.277L241.754 434.758ZM241.106 434.758H242.458L242.693 440.928V444H241.106V434.758ZM249.231 434.758H250.59V444H248.996V440.928L249.231 434.758ZM266.331 442.737V444H261.424V442.737H266.331ZM261.875 434.758V444H260.281V434.758H261.875ZM265.69 438.617V439.861H261.424V438.617H265.69ZM266.299 434.758V436.027H261.424V434.758H266.299Z"
              fill="#001949"/>
        <path d="M166.729 467.582L166.855 467.888C167.155 468.548 167.413 469.058 167.629 469.418C167.857 469.766 168.085 470.018 168.313 470.174C168.553 470.33 168.829 470.408 169.141 470.408H169.447L169.573 471.74L169.447 473H169.141C168.121 473 167.245 472.598 166.513 471.794C165.781 472.598 164.767 473 163.471 473H162.553C161.821 473 161.167 472.874 160.591 472.622C160.027 472.37 159.583 472.1 159.259 471.812L160.339 469.742C160.555 469.886 160.855 470.036 161.239 470.192C161.635 470.336 162.073 470.408 162.553 470.408H163.471C163.867 470.408 164.173 470.384 164.389 470.336C164.605 470.276 164.767 470.174 164.875 470.03C164.959 469.898 165.001 469.784 165.001 469.688C165.001 469.496 164.881 469.154 164.641 468.662L162.733 464.522L164.821 463.442L166.729 467.582ZM169.255 470.408H171.253C171.793 470.408 172.177 470.318 172.405 470.138C172.633 469.946 172.735 469.676 172.711 469.328C172.651 468.584 172.495 467.588 172.243 466.34L174.403 465.8C174.547 466.436 174.679 467.114 174.799 467.834C174.931 468.554 174.997 469.136 174.997 469.58C174.997 470.18 174.865 470.738 174.601 471.254C174.337 471.77 173.935 472.19 173.395 472.514C172.867 472.838 172.213 473 171.433 473H169.255V470.408ZM168.247 475.196H170.389V477.356H168.247V475.196ZM171.613 475.196H173.773V477.356H171.613V475.196ZM184.272 467.582L184.398 467.888C184.698 468.548 184.956 469.058 185.172 469.418C185.4 469.766 185.628 470.018 185.856 470.174C186.096 470.33 186.372 470.408 186.684 470.408H186.99L187.116 471.74L186.99 473H186.684C185.664 473 184.788 472.598 184.056 471.794C183.324 472.598 182.31 473 181.014 473H180.096C179.364 473 178.71 472.874 178.134 472.622C177.57 472.37 177.126 472.1 176.802 471.812L177.882 469.742C178.098 469.886 178.398 470.036 178.782 470.192C179.178 470.336 179.616 470.408 180.096 470.408H181.014C181.41 470.408 181.716 470.384 181.932 470.336C182.148 470.276 182.31 470.174 182.418 470.03C182.502 469.898 182.544 469.784 182.544 469.688C182.544 469.496 182.424 469.154 182.184 468.662L180.276 464.522L182.364 463.442L184.272 467.582ZM186.816 470.408H190.578L190.722 471.668L190.578 473H186.816V470.408ZM190.385 470.408H194.147L194.291 471.668L194.147 473H190.385V470.408ZM193.953 470.408H197.715L197.859 471.668L197.715 473H193.953V470.408ZM197.521 470.408H201.283L201.427 471.668L201.283 473H197.521V470.408ZM201.09 470.408H204.852L204.996 471.668L204.852 473H201.09V470.408ZM204.658 470.408H205.126C205.366 470.408 205.546 470.354 205.666 470.246C205.798 470.126 205.894 469.934 205.954 469.67L206.422 467.942C206.686 466.898 207.13 466.1 207.754 465.548C208.378 464.996 209.128 464.72 210.004 464.72C210.7 464.72 211.318 464.912 211.858 465.296C212.41 465.668 212.842 466.19 213.154 466.862C213.466 467.522 213.622 468.266 213.622 469.094C213.622 470.09 213.46 470.906 213.136 471.542C212.812 472.166 212.404 472.622 211.912 472.91C211.432 473.186 210.928 473.324 210.4 473.324C209.992 473.324 209.56 473.24 209.104 473.072C208.66 472.916 207.994 472.628 207.106 472.208C206.83 472.46 206.524 472.658 206.188 472.802C205.852 472.934 205.51 473 205.162 473H204.658V470.408ZM208.204 470.03C208.852 470.33 209.332 470.534 209.644 470.642C209.956 470.75 210.238 470.804 210.49 470.804C211.15 470.804 211.48 470.24 211.48 469.112C211.48 468.5 211.348 468.032 211.084 467.708C210.82 467.372 210.478 467.204 210.058 467.204C209.71 467.204 209.404 467.33 209.14 467.582C208.876 467.834 208.684 468.2 208.564 468.68L208.204 470.03ZM216.191 462.884H218.531V473H216.191V462.884ZM213.383 462.182C213.635 461.402 214.001 460.82 214.481 460.436C214.961 460.052 215.627 459.86 216.479 459.86H220.169V461.678H216.479C216.059 461.678 215.741 461.768 215.525 461.948C215.309 462.116 215.129 462.374 214.985 462.722L213.383 462.182ZM227.186 468.518C226.562 469.826 226.25 471.032 226.25 472.136C226.25 473.072 226.466 473.774 226.898 474.242C227.342 474.71 228.08 474.944 229.112 474.944H230.66C231.428 474.944 232.004 474.878 232.388 474.746C232.772 474.614 233.03 474.386 233.162 474.062C233.306 473.738 233.378 473.258 233.378 472.622V466.97H235.664V469.076C235.664 469.544 235.772 469.886 235.988 470.102C236.216 470.306 236.516 470.408 236.888 470.408C237.272 470.408 237.566 470.318 237.77 470.138C237.974 469.946 238.076 469.658 238.076 469.274L238.058 466.97H240.362L240.344 469.364C240.344 470.06 240.704 470.408 241.424 470.408C241.784 470.408 242.072 470.306 242.288 470.102C242.516 469.898 242.612 469.628 242.576 469.292C242.468 468.584 242.294 467.6 242.054 466.34L244.214 465.8C244.61 467.552 244.808 468.818 244.808 469.598C244.808 470.198 244.688 470.756 244.448 471.272C244.22 471.788 243.848 472.208 243.332 472.532C242.828 472.844 242.192 473 241.424 473C240.968 473 240.548 472.91 240.164 472.73C239.78 472.55 239.45 472.298 239.174 471.974C238.91 472.286 238.58 472.538 238.184 472.73C237.788 472.91 237.356 473 236.888 473C236.48 473 236.072 472.904 235.664 472.712C235.64 474.2 235.226 475.376 234.422 476.24C233.618 477.104 232.364 477.536 230.66 477.536H229.112C228.032 477.536 227.108 477.296 226.34 476.816C225.572 476.336 224.99 475.688 224.594 474.872C224.198 474.056 224 473.144 224 472.136C224 471.404 224.126 470.624 224.378 469.796C224.63 468.968 224.93 468.206 225.278 467.51L227.186 468.518ZM236.384 462.704H238.544V464.846H236.384V462.704ZM238.148 460.112H240.2V462.146H238.148V460.112ZM239.804 462.704H241.946V464.846H239.804V462.704ZM249.107 475.07C249.851 475.07 250.415 475.004 250.799 474.872C251.183 474.752 251.447 474.542 251.591 474.242C251.747 473.954 251.837 473.54 251.861 473H250.313C249.173 473 248.267 472.67 247.595 472.01C246.935 471.338 246.605 470.402 246.605 469.202C246.605 468.35 246.761 467.594 247.073 466.934C247.397 466.274 247.835 465.764 248.387 465.404C248.951 465.032 249.587 464.846 250.295 464.846C251.063 464.846 251.735 465.026 252.311 465.386C252.899 465.746 253.349 466.256 253.661 466.916C253.985 467.576 254.147 468.338 254.147 469.202V470.408H255.137L255.281 471.722L255.137 473H254.147C254.099 474.404 253.667 475.532 252.851 476.384C252.035 477.236 250.787 477.662 249.107 477.662H246.965V475.07H249.107ZM248.801 469.076C248.801 469.568 248.921 469.934 249.161 470.174C249.401 470.402 249.785 470.516 250.313 470.516H251.861V469.148C251.861 467.9 251.339 467.276 250.295 467.276C249.803 467.276 249.431 467.444 249.179 467.78C248.927 468.116 248.801 468.548 248.801 469.076ZM254.877 470.408H257.037C258.165 470.408 259.227 470.264 260.223 469.976C261.219 469.688 262.245 469.262 263.301 468.698C260.769 467.822 259.293 467.384 258.873 467.384C258.621 467.384 258.411 467.462 258.243 467.618C258.075 467.762 257.925 468.014 257.793 468.374L255.777 467.726C256.053 466.79 256.461 466.076 257.001 465.584C257.541 465.092 258.165 464.846 258.873 464.846C259.365 464.846 260.139 465.032 261.195 465.404C262.263 465.776 263.667 466.322 265.407 467.042L265.749 469.868C264.621 470.576 263.643 471.14 262.815 471.56C261.987 471.98 261.093 472.328 260.133 472.604C259.173 472.868 258.141 473 257.037 473H254.877V470.408ZM257.865 460.94H260.259V463.28H257.865V460.94Z"
              fill="#001949"/>
    </g>

</svg>
